# xmcd
#
# Track frame offsets: 
#        150
#        17439
#        50089
#        62736
#        83731
#        100715
#        120764
#        137396
#        178015
#        198329
#        213087
#        230960
#        261878
#        272501
#
# Disc length: 4152 seconds
#
# Revision: 0
# Processed by: cddbd v1.5.2PL0 Copyright (c) Steve Scherf et al.
# Submitted via: ExactAudioCopyFreeDBPlugin 1.0
#
DISCID=b610360e
DTITLE=הגרובטרון - האלבום הראשון
DYEAR=1900
DGENRE=Funk
TTITLE0=ספירת מלאי
TTITLE1=איפה הן הבחורות
TTITLE2=שיר בבוקר בבוקר
TTITLE3=לו יהי
TTITLE4=צרות טובות
TTITLE5=שיר השוק
TTITLE6=עובדים עלינו עבודה עברית
TTITLE7=שיר העמק
TTITLE8=הללויה
TTITLE9=גבעת חלפון אינה עונה
TTITLE10=כשאת אומרת לא
TTITLE11=בלדה על סוס עם כתם על המצח
TTITLE12=רגע לפני ההתחלה - אינסטרומנטלי
TTITLE13=החגיגה ניגמרת
EXTD=
EXTT0=
EXTT1=
EXTT2=
EXTT3=
EXTT4=
EXTT5=
EXTT6=
EXTT7=
EXTT8=
EXTT9=
EXTT10=
EXTT11=
EXTT12=
EXTT13=
PLAYORDER=
